<?xml version="1.0" encoding="utf-8"?>
<!-- Generator: Adobe Illustrator 23.0.2, SVG Export Plug-In . SVG Version: 6.00 Build 0)  -->
<svg version="1.1" id="Layer_1" xmlns="http://www.w3.org/2000/svg" xmlns:xlink="http://www.w3.org/1999/xlink" x="0px" y="0px"
	 viewBox="0 0 683.8 285.6" style="enable-background:new 0 0 683.8 285.6;" xml:space="preserve">
<g>
	<path d="M2.3,117V0h20v57.1h27V14.5h20.1V117H49.3V74.5h-27V117H2.3z"/>
	<path d="M119.4,33.8v23.2h27.7v17.4h-27.7v23.2h37.5V117H99.3V14.5h57.5v19.3H119.4z"/>
	<path d="M232.8,117l-30.2-59.3V117h-20V14.5h18.9l30.1,59.6V14.8h20.2V117H232.8z"/>
	<path d="M280.9,14.5h32.5c20.5,0,34.3,13.2,34.3,37v2.9c0,15.8-6.8,26.4-17.9,31.4l17.3,31.1h-21.9l-13.8-26.4H301V117h-20V14.5z
		 M301,71.5h10c8.7,0,16.9-3.8,16.9-17.3v-2.9c0-14.1-7.8-17.6-16.9-17.6h-10V71.5z"/>
	<path d="M374.6,117V14.5h20V117H374.6z"/>
	<path d="M490.5,48.2v35.4c0,16.9-9.4,29.6-23.7,33.4l11.9,19.6H458l-10.8-19.2c-15.4-3.3-25.6-16.3-25.6-33.9V48.2
		c0-20.9,14.2-35.6,34.4-35.6C476.4,12.6,490.5,27.3,490.5,48.2z M456.1,99.7c7.6,0,14.4-3.8,14.4-18.6V50.6
		c0-14.4-6.2-18.7-14.4-18.7c-7.1,0-14.2,3.8-14.2,15.5v33.6C441.9,95.4,447.8,99.7,456.1,99.7z"/>
	<path d="M584.1,14.5v68.6c0,21.8-14.2,35.3-34.4,35.3c-20.2,0-34.3-13.4-34.3-35.3V14.5h20v69.3c0,11.3,6.4,15.5,14.2,15.5
		c7.4,0,14.4-4.2,14.4-15.5V14.5H584.1z"/>
	<path d="M631.9,33.8v23.2h27.7v17.4h-27.7v23.2h37.5V117h-57.5V14.5h57.5v19.3H631.9z"/>
	<path d="M1.3,196.9c0-18.7,13.4-30.1,33.7-30.1c19.8,0,33.4,13.2,33.4,34.3H48.7c0-10.9-5.4-16-13.9-16s-13.4,4.1-13.4,11.8
		c0,20.3,48.4,8.3,48.4,44.9c0,19.5-13.9,31.1-34.7,31.1S0,259.3,0,237.4h20c0,11.9,6.1,16.9,15,16.9c8.4,0,14.7-3.9,14.7-12.3
		C49.7,222.4,1.3,233.2,1.3,196.9z"/>
	<path d="M140.6,250.9h-29.8l-5.7,20.2H84.8l30.1-102.4h21.9l29.6,102.4H146L140.6,250.9z M136.4,233.6L126,193.5l-10.9,40.1H136.4z
		"/>
	<path d="M185.9,271.1V168.7h20v83.2h34v19.2H185.9z"/>
	<path d="M242.7,168.7h20.5l17.6,72.3l17.6-72.3h20.5l-27.6,102.4h-21.1C260.9,237,251.9,202.8,242.7,168.7z"/>
	<path d="M378.4,250.9h-29.8l-5.7,20.2h-20.3l30.1-102.4h21.9l29.6,102.4h-20.5L378.4,250.9z M374.2,233.6l-10.5-40.1l-10.9,40.1
		H374.2z"/>
	<path d="M423.8,168.7h33.7c20.3,0,34.4,12.5,34.4,37.5v27c0,24.7-14.1,37.9-34.4,37.9h-33.7V168.7z M443.8,252.1h11.3
		c9.6,0,16.9-3.8,16.9-23.8v-19.9c0-11-2.9-20.5-16.9-20.5h-11.3V252.1z"/>
	<path d="M515.3,237.3v-34.9c0-20.9,14.1-35.6,34.4-35.6c20.2,0,34.4,14.7,34.4,35.6v34.9c0,20.8-14.2,35.3-34.4,35.3
		C529.4,272.6,515.3,258,515.3,237.3z M564.1,238v-36.3c0-11.5-6.8-15.7-14.4-15.7c-7.1,0-14.2,3.8-14.2,15.5v36.3
		c0,11.5,6.7,15.5,14.2,15.5C556.5,253.4,564.1,249.8,564.1,238z"/>
	<path d="M609.8,168.7h32.5c20.5,0,34.3,13.2,34.3,37v2.9c0,15.8-6.8,26.4-17.9,31.4l25,45.6h-21.9l-21.5-41h-10.5v26.4h-20V168.7z
		 M629.9,225.6h10c8.7,0,16.9-3.8,16.9-17.3v-2.9c0-14.1-7.8-17.6-16.9-17.6h-10V225.6z"/>
</g>
</svg>
